HIERARCHY
ROOT Hips
{
	OFFSET 0.000000 0.000000 0.000000
	CHANNELS 6 Xposition Yposition Zposition Zrotation Yrotation Xrotation 
	JOINT LHipJoint
	{
		OFFSET 0.000000 0.000000 0.000000
		CHANNELS 3 Zrotation Yrotation Xrotation
		JOINT LeftUpLeg
		{
			OFFSET 1.363060 -1.794630 0.839290
			CHANNELS 3 Zrotation Yrotation Xrotation
			JOINT LeftLeg
			{
				OFFSET 2.448110 -6.726130 0.000000
				CHANNELS 3 Zrotation Yrotation Xrotation
				JOINT LeftFoot
				{
					OFFSET 2.562200 -7.039590 0.000000
					CHANNELS 3 Zrotation Yrotation Xrotation
					JOINT LeftToeBase
					{
						OFFSET 0.157640 -0.433110 2.322550
						CHANNELS 3 Zrotation Yrotation Xrotation
						End Site
						{
							OFFSET 0.000000 0.000000 0.000000
						}
					}
				}
			}
		}
	}
	JOINT RHipJoint
	{
		OFFSET 0.000000 0.000000 0.000000
		CHANNELS 3 Zrotation Yrotation Xrotation
		JOINT RightUpLeg
		{
			OFFSET -1.305520 -1.794630 0.839290
			CHANNELS 3 Zrotation Yrotation Xrotation
			JOINT RightLeg
			{
				OFFSET -2.542530 -6.985550 0.000000
				CHANNELS 3 Zrotation Yrotation Xrotation
				JOINT RightFoot
				{
					OFFSET -2.568260 -7.056230 0.000000
					CHANNELS 3 Zrotation Yrotation Xrotation
					JOINT RightToeBase
					{
						OFFSET -0.164730 -0.452590 2.363150
						CHANNELS 3 Zrotation Yrotation Xrotation
						End Site
						{
							OFFSET 0.000000 0.000000 0.000000
						}
					}
				}
			}
		}
	}
	JOINT LowerBack
	{
		OFFSET 0.000000 0.000000 0.000000
		CHANNELS 3 Zrotation Yrotation Xrotation
		JOINT Spine
		{
			OFFSET 0.028270 2.035590 -0.193380
			CHANNELS 3 Zrotation Yrotation Xrotation
			JOINT Spine1
			{
				OFFSET 0.056720 2.048850 -0.042750
				CHANNELS 3 Zrotation Yrotation Xrotation
				JOINT Neck
				{
					OFFSET 0.000000 0.000000 0.000000
					CHANNELS 3 Zrotation Yrotation Xrotation
					JOINT Neck1
					{
						OFFSET -0.054170 1.746240 0.172020
						CHANNELS 3 Zrotation Yrotation Xrotation
						JOINT Head
						{
							OFFSET 0.104070 1.761360 -0.123970
							CHANNELS 3 Zrotation Yrotation Xrotation
							End Site
							{
								OFFSET 0.000000 0.000000 0.000000
							}
						}
					}
				}
				JOINT LeftShoulder
				{
					OFFSET 0.000000 0.000000 0.000000
					CHANNELS 3 Zrotation Yrotation Xrotation
					JOINT LeftArm
					{
						OFFSET 3.362410 1.200890 -0.311210
						CHANNELS 3 Zrotation Yrotation Xrotation
						JOINT LeftForeArm
						{
							OFFSET 4.983000 -0.000000 -0.000000
							CHANNELS 3 Zrotation Yrotation Xrotation
							JOINT LeftHand
							{
								OFFSET 3.483560 -0.000000 -0.000000
								CHANNELS 3 Zrotation Yrotation Xrotation
								JOINT LeftFingerBase
								{
									OFFSET 0.000000 0.000000 0.000000
									CHANNELS 3 Zrotation Yrotation Xrotation
									JOINT LeftHandIndex1
									{
										OFFSET 0.715260 -0.000000 -0.000000
										CHANNELS 3 Zrotation Yrotation Xrotation
										End Site
										{
											OFFSET 0.000000 0.000000 0.000000
										}
									}
								}
								JOINT LThumb
								{
									OFFSET 0.000000 0.000000 0.000000
									CHANNELS 3 Zrotation Yrotation Xrotation
									End Site
									{
										OFFSET 0.000000 0.000000 0.000000
									}
								}
							}
						}
					}
				}
				JOINT RightShoulder
				{
					OFFSET 0.000000 0.000000 0.000000
					CHANNELS 3 Zrotation Yrotation Xrotation
					JOINT RightArm
					{
						OFFSET -3.136600 1.374050 -0.404650
						CHANNELS 3 Zrotation Yrotation Xrotation
						JOINT RightForeArm
						{
							OFFSET -5.241900 -0.000000 -0.000000
							CHANNELS 3 Zrotation Yrotation Xrotation
							JOINT RightHand
							{
								OFFSET -3.444170 -0.000000 -0.000000
								CHANNELS 3 Zrotation Yrotation Xrotation
								JOINT RightFingerBase
								{
									OFFSET 0.000000 0.000000 0.000000
									CHANNELS 3 Zrotation Yrotation Xrotation
									JOINT RightHandIndex1
									{
										OFFSET -0.622530 -0.000000 -0.000000
										CHANNELS 3 Zrotation Yrotation Xrotation
										End Site
										{
											OFFSET 0.000000 0.000000 0.000000
										}
									}
								}
								JOINT RThumb
								{
									OFFSET 0.000000 0.000000 0.000000
									CHANNELS 3 Zrotation Yrotation Xrotation
									End Site
									{
										OFFSET 0.000000 0.000000 0.000000
									}
								}
							}
						}
					}
				}
			}
		}
	}
}
MOTION
Frames: 7
Frame Time: 0.008333
17.218815 18.392053 21.095976 175.247405 -2.933522 -151.129946 22.849231 5.543292 -0.361825 -49.114925 -24.437920 -16.720506 2.572100 5.233155 12.928622 -1.536791 -14.593338 -33.154027 0.409500 -4.108000 -11.380700 -27.498958 -7.510869 -0.618411 47.130274 20.914085 -15.764880 -3.364123 -3.799969 9.164868 -0.179406 10.385762 -32.834165 -2.468500 9.780300 -28.268300 -8.529963 -1.010318 -27.965103 0.976358 -0.244816 -7.459320 1.551701 -1.842610 19.051464 -9.224218 -0.372734 -3.386328 11.264614 -1.899370 4.832906 1.034100 -0.804000 1.919400 16.885627 -2.823679 0.678238 -108.193876 -3.838139 17.952169 16.366274 -16.769624 -2.265213 -0.459038 0.293674 4.224938 20.372217 -11.906585 -4.583000 -7.125000 0.000000 0.000000 -4.426400 17.030900 2.944700 -11.237783 0.640234 0.354362 101.959354 -1.906230 3.882354 -18.469050 27.710062 -4.047194 0.003397 -0.466518 -1.624418 -10.346907 -53.084178 8.247500 7.125000 0.000000 0.000000 66.133600 -74.977400 -51.265700 
17.219936 18.392767 21.095466 175.210457 -2.880803 -151.034364 22.847879 5.532724 -0.375752 -49.118290 -24.566341 -16.756507 2.562930 5.233600 12.907296 -1.496857 -14.532271 -33.238947 0.284000 -3.427600 -9.471600 -27.492758 -7.494531 -0.518556 46.940927 21.259059 -16.187931 -3.359550 -4.014240 9.688065 -0.164863 10.341680 -32.935188 -2.367900 9.593700 -27.670900 -8.494258 -0.994664 -28.033870 0.879579 -0.256700 -7.489687 1.507773 -1.844691 19.047780 -9.076475 -0.416630 -3.445317 11.133148 -1.943037 4.886240 0.984800 -0.822000 1.934500 16.899854 -2.810865 0.682516 -108.111043 -3.815613 18.154454 16.439035 -16.878465 -2.292628 -0.465702 0.280959 4.018477 20.553476 -11.741730 -4.561500 -7.125000 0.000000 0.000000 -4.291100 17.201600 2.838100 -11.244487 0.647028 0.356272 101.989693 -1.836932 3.887117 -18.424822 27.660760 -4.029673 0.005805 -0.470316 -1.567281 -9.807434 -52.645934 7.770500 7.125000 0.000000 0.000000 64.851400 -74.627100 -49.727500 
17.221770 18.392971 21.095466 175.196206 -2.842820 -150.898983 22.839279 5.520650 -0.380154 -49.072118 -24.673809 -16.870097 2.555377 5.241515 12.892726 -1.456452 -14.460855 -33.329908 0.300700 -3.525700 -9.745900 -27.503882 -7.514165 -0.491808 46.897020 21.314427 -16.399656 -3.361702 -4.058166 9.756324 -0.110778 10.391543 -32.820207 -2.352000 9.563800 -27.575300 -8.279266 -0.858849 -28.031027 0.588362 -0.228244 -7.669968 1.309446 -1.803938 18.931654 -8.905797 -0.456561 -3.461690 11.199004 -2.023928 5.127409 0.960300 -0.842900 1.970700 16.949536 -2.789129 0.703656 -107.863549 -3.615268 18.445984 16.531465 -17.009634 -2.329726 -0.473727 0.286358 3.707094 20.773251 -12.081961 -4.746200 -7.125000 0.000000 0.000000 -4.145000 16.812900 2.776200 -11.233242 0.657795 0.378913 102.220382 -1.977917 3.841867 -18.466185 27.732561 -4.051925 0.010014 -0.472461 -1.419626 -8.889977 -52.275511 7.007500 7.125000 0.000000 0.000000 64.093500 -74.152000 -48.531300 
17.225338 18.392869 21.096689 175.214970 -2.908579 -150.883594 22.854874 5.528354 -0.358661 -49.024635 -24.718185 -16.933391 2.558767 5.266622 12.946833 -1.472858 -14.455426 -33.264972 0.328700 -3.684600 -10.190900 -27.489081 -7.508658 -0.495848 46.939616 21.285640 -16.384938 -3.359490 -4.042417 9.703337 -0.111462 10.357990 -32.753438 -2.343600 9.547700 -27.524300 -8.494769 -0.945402 -28.135817 0.863460 -0.204965 -7.572830 1.513842 -1.822022 19.058266 -9.174640 -0.383889 -3.314094 11.304238 -1.934435 4.707231 1.029800 -0.831000 1.884200 16.921513 -2.826062 0.683441 -108.049776 -3.776899 18.465207 16.553841 -17.066532 -2.342829 -0.482005 0.298246 3.798761 20.857776 -12.452030 -4.912900 -7.125000 0.000000 0.000000 -4.093900 16.401000 2.778600 -11.240777 0.627162 0.354561 102.035109 -1.875324 3.692071 -18.543777 27.815030 -4.080913 0.014102 -0.472395 -1.275204 -8.301966 -52.384261 6.555300 7.125000 0.000000 0.000000 64.783300 -73.974600 -48.949700 
17.225949 18.393276 21.094549 175.256071 -2.944860 -151.019866 22.856144 5.524932 -0.327279 -48.997439 -24.755586 -16.787300 2.562636 5.256160 12.928546 -1.427827 -14.329679 -33.220529 0.303800 -3.543800 -9.796600 -27.465830 -7.547288 -0.582370 47.068589 20.916426 -16.204008 -3.370544 -3.992472 9.675480 -0.052865 10.656243 -32.800693 -2.365200 9.588600 -27.654500 -8.458768 -0.921661 -28.021436 0.930917 -0.172779 -7.525839 1.505293 -1.792249 19.040280 -9.364494 -0.396376 -3.254525 11.523463 -1.974366 4.624612 1.094700 -0.856700 1.862700 16.921349 -2.829896 0.676441 -108.071518 -3.833923 18.525186 16.576676 -17.111578 -2.353430 -0.484618 0.298667 3.729064 20.884283 -12.535800 -4.952100 -7.125000 0.000000 0.000000 -4.077300 16.308700 2.775400 -11.236237 0.619000 0.346961 102.020574 -1.853410 3.520724 -18.583082 27.866471 -4.097637 0.012561 -0.469894 -1.208529 -8.518007 -52.399719 6.727600 7.125000 0.000000 0.000000 64.720700 -74.061000 -48.989300 
17.224930 18.394907 21.091797 175.326933 -2.942421 -151.123226 22.854274 5.526123 -0.308332 -48.951694 -24.758483 -16.656379 2.564256 5.231739 12.869969 -1.364416 -14.197832 -33.254485 0.320700 -3.640100 -10.066200 -27.443089 -7.583073 -0.649575 47.187675 20.606820 -16.100608 -3.376813 -3.968416 9.702997 0.004536 10.962629 -32.901281 -2.364000 9.586300 -27.647100 -8.326314 -0.870347 -27.934543 0.960595 -0.145516 -7.540364 1.460548 -1.761173 18.998418 -9.252556 -0.515378 -3.237382 11.242137 -2.113760 4.823714 1.022500 -0.913700 1.886500 16.904304 -2.813660 0.680930 -108.082385 -3.798723 18.637408 16.619307 -17.176759 -2.373413 -0.479275 0.296700 3.607455 20.705496 -12.559373 -4.914100 -7.125000 0.000000 0.000000 -4.206000 16.301800 2.864100 -11.249878 0.643990 0.355593 102.000511 -1.928288 3.563255 -18.736050 28.064422 -4.160933 0.011025 -0.463219 -1.129693 -8.374816 -54.073324 6.761100 7.125000 0.000000 0.000000 70.543800 -74.532300 -54.811400 
17.227682 18.394703 21.094549 175.337741 -2.996590 -151.074692 22.847782 5.535181 -0.295334 -48.897082 -24.744012 -16.785281 2.569667 5.261899 12.932333 -1.401004 -14.230187 -33.174893 0.313100 -3.596900 -9.945300 -27.459261 -7.608195 -0.696398 47.290132 20.426825 -15.974592 -3.387461 -3.857821 9.385538 0.080259 10.995735 -32.464936 -2.322600 9.507900 -27.397400 -8.205831 -0.840573 -27.849971 0.856046 -0.178856 -7.653051 1.380802 -1.764990 18.899833 -8.949055 -0.607382 -3.280033 10.899282 -2.216097 5.166392 0.909900 -0.941000 1.941300 16.907157 -2.789634 0.698121 -108.004734 -3.671374 18.717096 16.699784 -17.296087 -2.407933 -0.464972 0.292347 3.524473 20.341492 -12.521440 -4.803900 -7.125000 0.000000 0.000000 -4.466600 16.380100 3.035000 -11.261363 0.672523 0.377470 102.090406 -2.009240 3.823394 -18.771357 28.120174 -4.180821 0.011344 -0.466151 -1.582964 -8.926538 -53.442138 7.147300 7.125000 0.000000 0.000000 68.074400 -74.558100 -52.567300 
